<svg version="1.2" xmlns="http://www.w3.org/2000/svg" viewBox="0 0 426 156" width="426" height="156"><style>.a{fill:#10bccd}.b{fill:#512fc9}</style><path class="a" d="m84 22.8h-78.6v-5.3h78.6zm0 10.5h-78.6v-5.2h78.6zm-57.6 10.4h-21v-5.2h78.6v5.2h-20.9v94.3h-5.3v-94.3h-5.2v94.3h-5.3v-94.3h-5.2v94.3h-5.2v-94.3h-5.3v94.3h-5.2z"/><path class="b" d="m144.5 64.7h-8.8q-5.6 0-8-2.9-2.5-2.9-2.5-7.6 0-10.5 15.6-10.5 14.7 0 22.2 4.4l-4.3 3.2q-5.1-2.4-17.9-2.4-6.2 0-8.4 1.4-2.1 1.4-2.1 3.9 0 2.5 1.1 3.8 1.2 1.4 4.3 1.4h9.1q9.8 0 17.6 3.4 8 3.3 13.1 9.1 5.1 5.8 7.7 13.4 2.7 7.4 2.7 16 0 7-1.9 13.3-2 6.2-6 11.5-3.9 5.2-9.5 9.1-5.5 3.7-13.3 5.9-7.6 2.1-16.5 2.1-14.1 0-26.4-4.2-12.2-4.3-20.4-11.9l4.3-3.1q7.4 6.7 18.5 10.4 11.2 3.6 24 3.6 9.9 0 17.9-2.8 8.1-2.9 13.3-8 5.2-5 8-11.6 2.8-6.6 2.8-14.3 0-10.1-4.1-18.2-4-8.3-12.4-13.3-8.3-5.1-19.7-5.1zm-8.8 5.2h8.3q14.8 0 23.1 9 8.4 9 8.4 22.4 0 13.6-9.7 22.6-9.7 8.9-27.1 8.9-11.7 0-21.8-3.2-10.1-3.2-16.8-9.1l4.1-3.2q5.9 4.8 15 7.5 9 2.7 19.5 2.7 15.3 0 23.4-7.3 8.1-7.4 8.1-18.9 0-11.3-6.8-18.7-6.8-7.5-19.4-7.5h-8.3q-10.6 0-15.9-5.8-5.3-5.8-5.3-15.1 0-9.3 6.5-15.1 6.7-5.9 19.8-5.9 9.3 0 17.2 2.2 7.9 2.1 13.1 6.1l-4.1 3.2q-9.1-6.2-26.2-6.2-11 0-16 4.3-5.1 4.3-5.1 11.4 0 7.1 3.7 11.4 3.8 4.3 12.3 4.3zm0 10.5h8q10.7 0 16 5.9 5.3 5.9 5.3 15 0 9.3-6.6 15.2-6.6 5.8-19.7 5.8-9.3 0-17.3-2.1-7.9-2.2-13.1-6.2l4.2-3.2q9.1 6.2 26.2 6.2 10.9 0 16-4.2 5-4.4 5-11.5 0-7-3.7-11.3-3.8-4.4-12.3-4.4h-8q-14.9 0-23.3-8.9-8.4-8.9-8.4-22.5 0-13.6 9.7-22.5 9.7-8.9 27.1-8.9 11.7 0 21.7 3.2 10.1 3.2 16.8 9l-4.1 3.3q-5.9-4.9-14.9-7.6-9.1-2.7-19.5-2.7-15.3 0-23.5 7.3-8 7.4-8 18.9 0 11.4 6.8 18.8 6.8 7.4 19.6 7.4zm0 10.5h8q5.6 0 8.1 2.9 2.5 2.9 2.5 7.5 0 10.5-15.6 10.5-14.8 0-22.2-4.4l4.2-3.2q5.1 2.4 18 2.4 6.2 0 8.3-1.4 2.2-1.4 2.2-3.9 0-2.4-1.2-3.8-1.2-1.4-4.4-1.4h-7.9q-10 0-18.1-3.3-8.1-3.3-13.4-9-5.1-5.7-7.9-13.3-2.8-7.6-2.8-16.3 0-7 2-13.3 2-6.2 5.9-11.4 4-5.3 9.5-9.1 5.6-3.8 13.3-5.9 7.7-2.2 16.6-2.2 14.1 0 26.3 4.3 12.2 4.2 20.4 11.8l-4.3 3.2q-7.4-6.7-18.5-10.4-11.1-3.7-23.9-3.7-9.9 0-18 2.9-8 2.9-13.3 7.9-5.1 5-8 11.6-2.7 6.6-2.7 14.3 0 10.2 4.1 18.5 4.2 8.2 12.7 13.2 8.5 5 20.1 5zm110.5-26.2h-8.8q-5.6 0-8.1-2.9-2.5-2.9-2.5-7.6 0-10.5 15.7-10.5 14.7 0 22.1 4.4l-4.2 3.2q-5.1-2.4-17.9-2.4-6.3 0-8.5 1.4-2.1 1.4-2.1 3.9 0 2.5 1.2 3.8 1.1 1.4 4.3 1.4h9q9.8 0 17.7 3.4 7.9 3.3 13 9.1 5.1 5.8 7.8 13.4 2.7 7.4 2.7 16 0 7-2 13.3-2 6.2-6 11.5-3.9 5.2-9.5 9.1-5.5 3.7-13.2 5.9-7.7 2.1-16.6 2.1-14.1 0-26.3-4.2-12.3-4.3-20.4-11.9l4.2-3.1q7.4 6.7 18.6 10.4 11.2 3.6 23.9 3.6 10 0 18-2.8 8-2.9 13.2-8 5.2-5 8-11.6 2.8-6.6 2.8-14.3 0-10.1-4-18.2-4.1-8.3-12.5-13.3-8.3-5.1-19.6-5.1zm-8.8 5.2h8.3q14.7 0 23 9 8.4 9 8.4 22.4 0 13.6-9.7 22.6-9.7 8.9-27.1 8.9-11.7 0-21.8-3.2-10.1-3.2-16.8-9.1l4.1-3.2q6 4.8 15 7.5 9.1 2.7 19.5 2.7 15.3 0 23.4-7.3 8.2-7.4 8.2-18.9 0-11.3-6.9-18.7-6.7-7.5-19.4-7.5h-8.2q-10.6 0-16-5.8-5.3-5.8-5.3-15.1 0-9.3 6.6-15.1 6.6-5.9 19.8-5.9 9.2 0 17.1 2.2 8 2.1 13.1 6.1l-4.1 3.2q-9.1-6.2-26.1-6.2-11 0-16.1 4.3-5 4.3-5 11.4 0 7.1 3.7 11.4 3.8 4.3 12.3 4.3zm0 10.5h8q10.6 0 15.9 5.9 5.3 5.9 5.3 15 0 9.3-6.6 15.2-6.5 5.8-19.7 5.8-9.3 0-17.3-2.1-7.9-2.2-13.1-6.2l4.2-3.2q9.1 6.2 26.2 6.2 11 0 16-4.2 5.1-4.4 5.1-11.5 0-7-3.8-11.3-3.8-4.4-12.3-4.4h-7.9q-14.9 0-23.4-8.9-8.3-8.9-8.3-22.5 0-13.6 9.6-22.5 9.7-8.9 27.2-8.9 11.6 0 21.7 3.2 10.1 3.2 16.8 9l-4.1 3.3q-6-4.9-15-7.6-9-2.7-19.4-2.7-15.4 0-23.5 7.3-8.1 7.4-8.1 18.9 0 11.4 6.8 18.8 6.9 7.4 19.7 7.4zm0 10.5h8q5.6 0 8.1 2.9 2.4 2.9 2.4 7.5 0 10.5-15.6 10.5-14.8 0-22.2-4.4l4.2-3.2q5.1 2.4 18 2.4 6.2 0 8.4-1.4 2.1-1.4 2.1-3.9 0-2.4-1.2-3.8-1.2-1.4-4.4-1.4h-7.8q-10.1 0-18.2-3.3-8.1-3.3-13.3-9-5.2-5.7-8-13.3-2.7-7.6-2.7-16.3 0-7 1.9-13.3 2-6.2 5.9-11.4 4-5.3 9.6-9.1 5.6-3.8 13.2-5.9 7.7-2.2 16.7-2.2 14 0 26.2 4.3 12.3 4.2 20.4 11.8l-4.2 3.2q-7.4-6.7-18.6-10.4-11.1-3.7-23.8-3.7-10 0-18.1 2.9-8 2.9-13.2 7.9-5.2 5-8 11.6-2.8 6.6-2.8 14.3 0 10.2 4.2 18.5 4.1 8.2 12.6 13.2 8.5 5 20.2 5zm177 47.1v-120.5h5.2v120.5zm-115.2 0v-120.5h5.2v120.5zm104.8 0v-120.5h5.2v120.5zm-10.5 0v-120.5h5.3v120.5zm-10.5-73.4v-47.1h5.2v120.5h-5.2v-47.2h-47.1v47.2h-5.3v-120.5h5.3v47.1zm-62.9 73.4v-120.5h5.2v120.5zm-10.4 0v-120.5h5.2v120.5zm26.2-52.5h47.1v-5.2h-47.1zm0-10.5h47.1v-5.2h-47.1z"/></svg>